<svg preserveAspectRatio="none" overflow="visible" style="display: block;" width="566.538" height="447.448" viewBox="0 0 566.538 447.448" fill="none" xmlns="http://www.w3.org/2000/svg">
<g id="Group 55">
<path id="Vector" d="M140.502 126.742C86.1533 141.305 53.7891 197.361 68.3517 251.71L70.6201 260.176C85.1827 314.524 141.239 346.888 195.588 332.326L282.336 309.081C290.959 306.771 300.117 306.669 308.867 308.806L374.045 324.835C374.296 301.524 389.935 280.25 413.556 273.921C467.905 259.358 500.269 203.302 485.706 148.954L483.438 140.488C468.875 86.1393 412.819 53.7751 358.47 68.3377L140.502 126.742ZM131.638 93.6628L349.554 35.2723C421.932 15.8789 497.057 59.2084 516.465 131.638L518.733 140.104C538.127 212.481 494.797 287.607 422.367 307.014C412.229 309.731 406.185 320.2 408.902 330.338L411.562 340.267C414.433 350.98 407.726 361.067 398.11 363.643C395.184 364.427 391.957 364.508 388.662 363.71L300.7 342.08C297.576 341.292 294.335 341.321 291.2 342.161L204.451 365.405C132.074 384.798 56.9482 341.469 37.5408 269.039L35.2723 260.573C15.8789 188.196 59.2084 113.07 131.638 93.6628Z" fill="white" fill-opacity="0.06"/>
<path id="Vector_2" d="M414.555 159.337C416.319 165.92 415.396 172.935 411.988 178.837C408.58 184.74 402.967 189.047 396.384 190.811C389.8 192.575 382.786 191.651 376.883 188.243C370.981 184.836 366.674 179.223 364.91 172.639C363.146 166.056 364.069 159.041 367.477 153.139C370.885 147.236 376.498 142.929 383.081 141.165C389.665 139.401 396.679 140.325 402.582 143.733C408.484 147.141 412.791 152.754 414.555 159.337Z" fill="white" fill-opacity="0.06"/>
<path id="Vector_3" d="M300.894 189.792C302.658 196.376 301.734 203.39 298.327 209.293C294.919 215.195 289.306 219.502 282.722 221.266C276.139 223.03 269.125 222.107 263.222 218.699C257.32 215.291 253.013 209.678 251.249 203.095C249.485 196.511 250.408 189.497 253.816 183.594C257.224 177.692 262.837 173.385 269.42 171.621C276.003 169.857 283.018 170.78 288.92 174.188C294.823 177.596 299.13 183.209 300.894 189.792Z" fill="white" fill-opacity="0.06"/>
<path id="Vector_4" d="M187.232 220.248C188.996 226.831 188.073 233.846 184.665 239.748C181.257 245.651 175.644 249.958 169.061 251.722C162.478 253.486 155.463 252.562 149.561 249.154C143.658 245.747 139.351 240.134 137.587 233.55C135.823 226.967 136.747 219.952 140.154 214.05C143.562 208.147 149.175 203.84 155.759 202.076C162.342 200.312 169.356 201.236 175.259 204.644C181.161 208.051 185.468 213.664 187.232 220.248Z" fill="white" fill-opacity="0.06"/>
</g>
</svg>
